# xmcd
#
# Track frame offsets: 
#        150
#        18322
#        31142
#        44353
#        56343
#        67368
#        77764
#        88765
#        99998
#        113049
#        121864
#        129202
#        141158
#        152450
#        163361
#        176074
#        185766
#        206941
#        218577
#        229377
#
# Disc length: 3208 seconds
#
# Revision: 0
# Processed by: cddbd v1.5.2PL0 Copyright (c) Steve Scherf et al.
# Submitted via: ExactAudioCopyFreeDBPlugin 1.0
#
DISCID=190c8614
DTITLE=Various Artist - The In Crowd - Sixties Movers ’N’ Shakers CD2
DYEAR=2014
DGENRE=Soul
TTITLE0=Norman Greenbaum - Spirit In The Sky
TTITLE1=The Archies - Sugar Sugar
TTITLE2=The Newbeats - Run Baby Run (Back Into My Arms)
TTITLE3=The Mar-Keys - Last Night
TTITLE4=Little Eva - The Loco-Motion
TTITLE5=Chubby Checker - Let’s Twist Again
TTITLE6=Hank Ballard and The Midnighters - Let’s Go, Let’s Go, Let’s Go
TTITLE7=The Marvelettes - Please Mr. Postman
TTITLE8=The Contours - Do You Love Me
TTITLE9=Ray Charles - Hit The Road Jack
TTITLE10=Maurice Williams and The Zodiacs - Stay
TTITLE11=Sam Cooke - Chain Gang
TTITLE12=Stevie Wonder - Hallelujah I Love Her So
TTITLE13=Chris Montez - Let’s Dance
TTITLE14=King Curtis - Soul Twist
TTITLE15=Bill Black's Combo - Smokie (Part 2)
TTITLE16=The Isley Brothers - Shout
TTITLE17=Jimmy McGriff - I’ve Got A Woman (Part 1)
TTITLE18=Barbara George - I Know (You Don’t Love Me No More)
TTITLE19=The Trashmen - Surfin’ Bird
EXTD=
EXTT0=
EXTT1=
EXTT2=
EXTT3=
EXTT4=
EXTT5=
EXTT6=
EXTT7=
EXTT8=
EXTT9=
EXTT10=
EXTT11=
EXTT12=
EXTT13=
EXTT14=
EXTT15=
EXTT16=
EXTT17=
EXTT18=
EXTT19=
PLAYORDER=
